<svg aria-hidden="true" style="position:absolute;width:0;height:0;overflow:hidden" xmlns="http://www.w3.org/2000/svg"><defs><symbol id="arrow" viewBox="0 0 53 32"><path fill="#fff" style="fill:var(--color1, #fff)" d="m14.667 16.538-12-11.999 3-3.001 21 21 21-21.25 3 3.001-24 24.25-12-12z"/></symbol><symbol id="facebook" viewBox="0 0 18 32"><path fill="#e8e8e8" style="fill:var(--color2, #e8e8e8)" d="M16.984.786c-.482-.071-2.143-.214-4.071-.214-4.036 0-6.804 2.464-6.804 6.982v3.893H1.555v5.286h4.554v13.554h5.464V16.733h4.536l.696-5.286h-5.232V8.072c0-1.518.411-2.571 2.607-2.571h2.804V.787z"/></symbol><symbol id="linkedin" viewBox="0 0 34 32"><path fill="#5474fd" style="fill:var(--color3, #5474fd)" d="M8.587 11.122H1.852v20.225h6.735V11.122zm.428-6.244c-.02-1.98-1.449-3.49-3.755-3.49-2.286 0-3.796 1.51-3.796 3.49 0 1.939 1.449 3.49 3.714 3.49h.041c2.347 0 3.816-1.551 3.796-3.49zm23.796 14.877c0-6.204-3.306-9.102-7.735-9.102-3.633 0-5.225 2.02-6.102 3.408h.041v-2.939h-6.714s.082 1.898 0 20.225h6.714V20.061c0-.612.061-1.204.224-1.653.49-1.204 1.592-2.449 3.449-2.449 2.428 0 3.408 1.857 3.408 4.571v10.816h6.714V19.754z"/></symbol><symbol id="pinteres" viewBox="0 0 32 32"><path fill="#e8e8e8" style="fill:var(--color2, #e8e8e8)" d="M31.668 16.653C31.668 8 24.648.98 15.995.98S.322 8 .322 16.653c0 6.429 3.857 11.939 9.388 14.367-.041-1.102-.02-2.429.265-3.612 0 0 .306-1.265 2.02-8.531-.51-1-.51-2.49-.51-2.49 0-2.326 1.347-4.061 3.02-4.061 1.429 0 2.122 1.082 2.122 2.367 0 1.429-.918 3.571-1.388 5.551-.388 1.674.837 3.02 2.469 3.02 2.98 0 4.98-3.816 4.98-8.327 0-3.449-2.327-6.02-6.531-6.02-4.755 0-7.714 3.551-7.714 7.51 0 1.367.408 2.327 1.041 3.082.286.347.327.469.225.878-.082.286-.245.98-.327 1.245-.102.408-.429.551-.775.408-2.184-.898-3.204-3.306-3.204-6 0-4.449 3.755-9.796 11.184-9.796 6 0 9.939 4.347 9.939 8.98 0 6.163-3.429 10.755-8.469 10.755-1.694 0-3.286-.918-3.816-1.959-.918 3.612-1.102 4.306-1.102 4.306-.327 1.204-1 2.408-1.592 3.347 1.429.429 2.898.653 4.449.653 8.653 0 15.673-7.021 15.673-15.674z"/></symbol><symbol id="search" viewBox="0 0 29 32"><path fill="#fff" style="fill:var(--color1, #fff)" d="m29.08 29.061-1.519 1.523-8.388-8.413c-.482.435-1.012.823-1.591 1.16-.578.339-1.182.629-1.808.87-.627.243-1.29.424-1.989.544-.699.121-1.386.182-2.061.182-1.64 0-3.171-.314-4.592-.943-1.423-.628-2.664-1.474-3.724-2.538S1.516 19.138.913 17.711c-.604-1.426-.904-2.937-.904-4.533 0-1.643.301-3.178.904-4.605.602-1.426 1.434-2.671 2.495-3.735 1.06-1.063 2.302-1.897 3.724-2.502 1.421-.604 2.952-.907 4.592-.907 1.591 0 3.097.303 4.519.907 1.422.605 2.663 1.439 3.724 2.502 1.06 1.064 1.904 2.309 2.531 3.735.626 1.426.94 2.962.94 4.605 0 .678-.061 1.367-.181 2.067-.121.701-.302 1.366-.542 1.994-.242.629-.531 1.233-.868 1.813-.338.58-.723 1.113-1.157 1.595l8.388 8.412zM1.24 13.179c0 1.45.264 2.804.795 4.061.53 1.258 1.277 2.369 2.242 3.336.964.968 2.085 1.729 3.363 2.284s2.64.834 4.086.834c1.446 0 2.795-.278 4.05-.834s2.362-1.317 3.326-2.284c.964-.967 1.723-2.078 2.278-3.336.554-1.257.832-2.611.832-4.061s-.278-2.816-.832-4.097c-.555-1.28-1.314-2.405-2.278-3.372-.965-.967-2.073-1.716-3.326-2.248-1.254-.531-2.603-.798-4.05-.798s-2.809.266-4.086.798c-1.278.533-2.399 1.282-3.363 2.248-.965.968-1.712 2.092-2.242 3.372-.531 1.282-.795 2.647-.795 4.097z"/></symbol><symbol id="tourist" viewBox="0 0 113 32"><path fill="#5474fd" style="fill:var(--color3, #5474fd)" d="M3.029 3.422c0-.418-.339-.757-.757-.757h-.883c-.209 0-.379-.17-.379-.379V2.16c0-.556.454-1.01 1.01-1.01h.252c.138 0 .252-.114.252-.252V.393c0-.138-.114-.252-.252-.252H2.02C.908.141.001 1.048.001 2.16v2.777c0 .418.339.757.757.757h1.514c.418 0 .757-.339.757-.757V3.423zm3.534 0c0-.418-.339-.757-.757-.757h-.883c-.209 0-.379-.17-.379-.379V2.16c0-.556.454-1.01 1.01-1.01h.252c.138 0 .252-.114.252-.252V.393c0-.138-.114-.252-.252-.252h-.252c-1.112 0-2.019.907-2.019 2.019v2.777c0 .418.339.757.757.757h1.514c.418 0 .757-.339.757-.757V3.423z"/></symbol><symbol id="twitter" viewBox="0 0 40 32"><path fill="#e8e8e8" style="fill:var(--color2, #e8e8e8)" d="M38.759 5.143c-1.381.595-2.881 1.024-4.429 1.19 1.595-.952 2.81-2.452 3.381-4.238-1.476.881-3.143 1.524-4.881 1.857-1.405-1.5-3.405-2.429-5.619-2.429-4.262 0-7.69 3.452-7.69 7.69 0 .595.071 1.19.19 1.762C13.33 10.642 7.64 7.594 3.854 2.927 3.187 4.07 2.806 5.379 2.806 6.808c0 2.667 1.357 5.024 3.429 6.405-1.262-.048-2.452-.405-3.476-.976v.095c0 3.738 2.643 6.833 6.167 7.548-.643.167-1.333.262-2.024.262-.5 0-.976-.048-1.452-.119.976 3.048 3.81 5.262 7.19 5.333-2.643 2.071-5.952 3.286-9.548 3.286-.643 0-1.238-.024-1.857-.095 3.405 2.19 7.452 3.452 11.81 3.452 14.143 0 21.881-11.714 21.881-21.881 0-.333 0-.667-.024-1 1.5-1.095 2.809-2.452 3.857-3.976z"/></symbol><symbol id="youtube" viewBox="0 0 45 32"><path fill="#e8e8e8" style="fill:var(--color2, #e8e8e8)" d="M18.262 22.286V10.31l11.524 6.024-11.524 5.952zm4.405-20.524c-8.976 0-14.929.429-14.929.429-.833.095-2.667.095-4.286 1.81 0 0-1.31 1.286-1.69 4.238-.452 3.452-.429 6.905-.429 6.905v3.238s-.024 3.452.429 6.905c.381 2.929 1.69 4.238 1.69 4.238 1.619 1.691 3.762 1.643 4.714 1.81 0 0 3.405.333 14.5.429 8.976 0 14.929-.452 14.929-.452.833-.095 2.667-.095 4.286-1.786 0 0 1.309-1.309 1.69-4.238.452-3.452.429-6.905.429-6.905v-3.238s.024-3.452-.429-6.905c-.381-2.952-1.69-4.238-1.69-4.238-1.619-1.714-3.453-1.714-4.286-1.81 0 0-5.952-.429-14.929-.429z"/></symbol></defs></svg>